<svg width="239" height="207" viewBox="0 0 239 207" fill="none" xmlns="http://www.w3.org/2000/svg">
    <mask id="path-1-outside-1_6_16" maskUnits="userSpaceOnUse" x="4.96338" y="48.7166" width="229" height="97" fill="black">
        <rect fill="white" x="4.96338" y="48.7166" width="229" height="97"/>
        <path d="M7.56338 144.717L13.6434 135.117L49.1634 97.6766L7.56338 50.6366H33.1634L64.0434 85.9966H65.8034L96.8434 50.6366H122.443L116.203 60.0765L80.8434 97.6766L122.443 144.717H96.8434L65.8034 109.037H64.0434L33.1634 144.717H7.56338ZM136.888 144.717L138.488 131.917V50.6366H159.608V129.357H225.848L232.248 142.957C232.248 143.383 230.808 143.81 227.928 144.237C225.048 144.557 220.088 144.717 213.048 144.717H136.888Z"/>
    </mask>
    <path d="M7.56338 144.717L13.6434 135.117L49.1634 97.6766L7.56338 50.6366H33.1634L64.0434 85.9966H65.8034L96.8434 50.6366H122.443L116.203 60.0765L80.8434 97.6766L122.443 144.717H96.8434L65.8034 109.037H64.0434L33.1634 144.717H7.56338ZM136.888 144.717L138.488 131.917V50.6366H159.608V129.357H225.848L232.248 142.957C232.248 143.383 230.808 143.81 227.928 144.237C225.048 144.557 220.088 144.717 213.048 144.717H136.888Z" fill="#FF6C00"/>
    <path d="M7.56338 144.717L6.71856 144.182L5.74636 145.717H7.56338V144.717ZM13.6434 135.117L12.9179 134.428L12.8508 134.499L12.7986 134.581L13.6434 135.117ZM49.1634 97.6766L49.8888 98.3648L50.5193 97.7003L49.9125 97.0141L49.1634 97.6766ZM7.56338 50.6366V49.6366H5.34408L6.81429 51.299L7.56338 50.6366ZM33.1634 50.6366L33.9166 49.9788L33.6177 49.6366H33.1634V50.6366ZM64.0434 85.9966L63.2902 86.6543L63.589 86.9966H64.0434V85.9966ZM65.8034 85.9966V86.9966H66.2562L66.5549 86.6563L65.8034 85.9966ZM96.8434 50.6366V49.6366H96.3906L96.0919 49.9768L96.8434 50.6366ZM122.443 50.6366L123.278 51.188L124.303 49.6366H122.443V50.6366ZM116.203 60.0765L116.932 60.7616L116.99 60.6993L117.038 60.628L116.203 60.0765ZM80.8434 97.6766L80.1149 96.9915L79.4901 97.6558L80.0943 98.339L80.8434 97.6766ZM122.443 144.717V145.717H124.663L123.192 144.054L122.443 144.717ZM96.8434 144.717L96.0889 145.373L96.3879 145.717H96.8434V144.717ZM65.8034 109.037L66.5578 108.38L66.2589 108.037H65.8034V109.037ZM64.0434 109.037V108.037H63.5863L63.2872 108.382L64.0434 109.037ZM33.1634 144.717V145.717H33.6204L33.9195 145.371L33.1634 144.717ZM8.4082 145.252L14.4882 135.652L12.7986 134.581L6.71856 144.182L8.4082 145.252ZM14.3688 135.805L49.8888 98.3648L48.4379 96.9883L12.9179 134.428L14.3688 135.805ZM49.9125 97.0141L8.31247 49.9741L6.81429 51.299L48.4143 98.339L49.9125 97.0141ZM7.56338 51.6366H33.1634V49.6366H7.56338V51.6366ZM32.4102 51.2943L63.2902 86.6543L64.7966 85.3388L33.9166 49.9788L32.4102 51.2943ZM64.0434 86.9966H65.8034V84.9966H64.0434V86.9966ZM66.5549 86.6563L97.5949 51.2963L96.0919 49.9768L65.0519 85.3368L66.5549 86.6563ZM96.8434 51.6366H122.443V49.6366H96.8434V51.6366ZM121.609 50.0851L115.369 59.5251L117.038 60.628L123.278 51.188L121.609 50.0851ZM115.475 59.3915L80.1149 96.9915L81.5719 98.3616L116.932 60.7616L115.475 59.3915ZM80.0943 98.339L121.694 145.379L123.192 144.054L81.5925 97.0141L80.0943 98.339ZM122.443 143.717H96.8434V145.717H122.443V143.717ZM97.5978 144.06L66.5578 108.38L65.0489 109.693L96.0889 145.373L97.5978 144.06ZM65.8034 108.037H64.0434V110.037H65.8034V108.037ZM63.2872 108.382L32.4072 144.062L33.9195 145.371L64.7995 109.691L63.2872 108.382ZM33.1634 143.717H7.56338V145.717H33.1634V143.717ZM136.888 144.717L135.896 144.593L135.756 145.717H136.888V144.717ZM138.488 131.917L139.481 132.041L139.488 131.979V131.917H138.488ZM138.488 50.6366V49.6366H137.488V50.6366H138.488ZM159.608 50.6366H160.608V49.6366H159.608V50.6366ZM159.608 129.357H158.608V130.357H159.608V129.357ZM225.848 129.357L226.753 128.931L226.483 128.357H225.848V129.357ZM232.248 142.957H233.248V142.733L233.153 142.531L232.248 142.957ZM227.928 144.237L228.039 145.23L228.057 145.228L228.075 145.226L227.928 144.237ZM137.881 144.841L139.481 132.041L137.496 131.793L135.896 144.593L137.881 144.841ZM139.488 131.917V50.6366H137.488V131.917H139.488ZM138.488 51.6366H159.608V49.6366H138.488V51.6366ZM158.608 50.6366V129.357H160.608V50.6366H158.608ZM159.608 130.357H225.848V128.357H159.608V130.357ZM224.944 129.782L231.344 143.382L233.153 142.531L226.753 128.931L224.944 129.782ZM231.248 142.957C231.248 142.476 231.624 142.324 231.469 142.416C231.394 142.46 231.217 142.539 230.884 142.638C230.234 142.831 229.21 143.036 227.782 143.247L228.075 145.226C229.527 145.011 230.663 144.789 231.452 144.555C231.84 144.441 232.202 144.306 232.488 144.137C232.693 144.015 233.248 143.651 233.248 142.957H231.248ZM227.818 143.243C224.999 143.556 220.089 143.717 213.048 143.717V145.717C220.088 145.717 225.098 145.557 228.039 145.23L227.818 143.243ZM213.048 143.717H136.888V145.717H213.048V143.717Z" fill="white" mask="url(#path-1-outside-1_6_16)"/>
    <mask id="path-3-outside-2_6_16" maskUnits="userSpaceOnUse" x="3.96338" y="152" width="232" height="39" fill="black">
        <rect fill="white" x="3.96338" y="152" width="232" height="39"/>
        <path d="M16.1434 189C13.3034 189 11.0834 188.6 9.48338 187.8C7.88338 187 6.76338 185.8 6.12338 184.2C5.48338 182.6 5.16338 180.62 5.16338 178.26V164.88C5.16338 161.04 6.02338 158.22 7.74338 156.42C9.46338 154.58 12.2634 153.66 16.1434 153.66H34.2034C36.9634 153.66 39.0634 153.82 40.5034 154.14C41.9834 154.42 42.7234 154.72 42.7234 155.04L41.5234 160.02C40.8434 159.9 38.8234 159.78 35.4634 159.66C32.1434 159.5 27.3034 159.42 20.9434 159.42H17.8834C14.6834 159.42 13.0834 160.84 13.0834 163.68V178.98C13.0834 180.34 13.4234 181.4 14.1034 182.16C14.8234 182.88 16.0834 183.24 17.8834 183.24H20.3434C26.9834 183.24 32.1234 183.18 35.7634 183.06C39.4434 182.9 41.7234 182.74 42.6034 182.58L45.0634 186.54C45.0634 186.74 44.7234 187.04 44.0434 187.44C43.4034 187.84 42.2034 188.2 40.4434 188.52C38.6834 188.84 36.1434 189 32.8234 189H16.1434ZM46.2563 189L63.8363 153.72H75.6563L93.1764 189H83.9363L80.3963 181.38H58.9163L55.0163 189H46.2563ZM61.0763 175.5H78.1763L69.9563 159.12H69.3563L61.0763 175.5ZM136.33 189.6C134.73 189.6 133.15 189.36 131.59 188.88C130.07 188.36 128.33 187.12 126.37 185.16L122.05 180.84C120.29 179.04 118.35 177.72 116.23 176.88C114.15 176.04 111.53 175.62 108.37 175.62H106.51V189H98.5899V158.52L97.9899 153.66H124.57C127.13 153.66 129.13 154 130.57 154.68C132.05 155.36 133.13 156.26 133.81 157.38C134.53 158.46 134.99 159.62 135.19 160.86C135.39 162.1 135.49 163.28 135.49 164.4V165.54C135.49 166.42 135.37 167.4 135.13 168.48C134.89 169.56 134.43 170.62 133.75 171.66C133.07 172.7 132.09 173.58 130.81 174.3C129.57 175.02 127.93 175.44 125.89 175.56C126.41 175.84 127.07 176.28 127.87 176.88C128.67 177.44 129.49 178.06 130.33 178.74C131.21 179.42 132.01 180.04 132.73 180.6C133.45 181.16 134.01 181.56 134.41 181.8C135.85 182.64 137.13 183.22 138.25 183.54C139.37 183.86 140.29 184.04 141.01 184.08C141.73 184.12 142.15 184.14 142.27 184.14L141.07 189C140.71 189.12 140.11 189.24 139.27 189.36C138.43 189.52 137.45 189.6 136.33 189.6ZM115.51 170.16C117.03 170.16 118.39 170.14 119.59 170.1C120.79 170.02 121.87 169.94 122.83 169.86C124.59 169.66 125.81 169.18 126.49 168.42C127.21 167.62 127.57 166.6 127.57 165.36V163.98C127.57 162.7 127.23 161.62 126.55 160.74C125.87 159.86 124.65 159.42 122.89 159.42H106.51V169.86C108.27 169.98 109.89 170.06 111.37 170.1C112.85 170.14 114.23 170.16 115.51 170.16ZM158.057 189C155.217 189 152.997 188.6 151.397 187.8C149.797 187 148.677 185.8 148.037 184.2C147.397 182.6 147.077 180.62 147.077 178.26V164.88C147.077 161.04 147.937 158.22 149.657 156.42C151.377 154.58 154.177 153.66 158.057 153.66H176.117C178.877 153.66 180.977 153.82 182.417 154.14C183.897 154.42 184.637 154.72 184.637 155.04L183.437 160.02C182.757 159.9 180.737 159.78 177.377 159.66C174.057 159.5 169.217 159.42 162.857 159.42H159.797C156.597 159.42 154.997 160.84 154.997 163.68V178.98C154.997 180.34 155.337 181.4 156.017 182.16C156.737 182.88 157.997 183.24 159.797 183.24H162.257C166.097 183.24 169.337 183.22 171.977 183.18C174.617 183.1 176.797 183.04 178.517 183V174.84L174.917 174.9L167.057 175.5V169.62H186.377V186.48L186.977 187.74C186.977 188.06 186.137 188.36 184.457 188.64C182.777 188.88 179.937 189 175.937 189H158.057ZM205.753 189C202.953 189 200.753 188.6 199.153 187.8C197.553 187 196.413 185.8 195.733 184.2C195.093 182.6 194.773 180.62 194.773 178.26V164.4C194.773 162.08 195.093 160.14 195.733 158.58C196.373 156.98 197.493 155.78 199.093 154.98C200.693 154.14 202.913 153.72 205.753 153.72H223.273C226.073 153.72 228.253 154.14 229.813 154.98C231.413 155.78 232.533 156.98 233.173 158.58C233.853 160.14 234.193 162.08 234.193 164.4V178.26C234.193 181.78 233.413 184.46 231.853 186.3C230.293 188.1 227.433 189 223.273 189H205.753ZM207.493 183.24H221.593C223.073 183.24 224.213 182.86 225.013 182.1C225.853 181.34 226.273 180.3 226.273 178.98V163.68C226.273 162.52 225.853 161.54 225.013 160.74C224.173 159.9 223.033 159.48 221.593 159.48H207.493C206.053 159.48 204.893 159.86 204.013 160.62C203.133 161.38 202.693 162.4 202.693 163.68V178.98C202.693 180.34 203.113 181.4 203.953 182.16C204.833 182.88 206.013 183.24 207.493 183.24Z"/>
    </mask>
    <path d="M16.1434 189C13.3034 189 11.0834 188.6 9.48338 187.8C7.88338 187 6.76338 185.8 6.12338 184.2C5.48338 182.6 5.16338 180.62 5.16338 178.26V164.88C5.16338 161.04 6.02338 158.22 7.74338 156.42C9.46338 154.58 12.2634 153.66 16.1434 153.66H34.2034C36.9634 153.66 39.0634 153.82 40.5034 154.14C41.9834 154.42 42.7234 154.72 42.7234 155.04L41.5234 160.02C40.8434 159.9 38.8234 159.78 35.4634 159.66C32.1434 159.5 27.3034 159.42 20.9434 159.42H17.8834C14.6834 159.42 13.0834 160.84 13.0834 163.68V178.98C13.0834 180.34 13.4234 181.4 14.1034 182.16C14.8234 182.88 16.0834 183.24 17.8834 183.24H20.3434C26.9834 183.24 32.1234 183.18 35.7634 183.06C39.4434 182.9 41.7234 182.74 42.6034 182.58L45.0634 186.54C45.0634 186.74 44.7234 187.04 44.0434 187.44C43.4034 187.84 42.2034 188.2 40.4434 188.52C38.6834 188.84 36.1434 189 32.8234 189H16.1434ZM46.2563 189L63.8363 153.72H75.6563L93.1764 189H83.9363L80.3963 181.38H58.9163L55.0163 189H46.2563ZM61.0763 175.5H78.1763L69.9563 159.12H69.3563L61.0763 175.5ZM136.33 189.6C134.73 189.6 133.15 189.36 131.59 188.88C130.07 188.36 128.33 187.12 126.37 185.16L122.05 180.84C120.29 179.04 118.35 177.72 116.23 176.88C114.15 176.04 111.53 175.62 108.37 175.62H106.51V189H98.5899V158.52L97.9899 153.66H124.57C127.13 153.66 129.13 154 130.57 154.68C132.05 155.36 133.13 156.26 133.81 157.38C134.53 158.46 134.99 159.62 135.19 160.86C135.39 162.1 135.49 163.28 135.49 164.4V165.54C135.49 166.42 135.37 167.4 135.13 168.48C134.89 169.56 134.43 170.62 133.75 171.66C133.07 172.7 132.09 173.58 130.81 174.3C129.57 175.02 127.93 175.44 125.89 175.56C126.41 175.84 127.07 176.28 127.87 176.88C128.67 177.44 129.49 178.06 130.33 178.74C131.21 179.42 132.01 180.04 132.73 180.6C133.45 181.16 134.01 181.56 134.41 181.8C135.85 182.64 137.13 183.22 138.25 183.54C139.37 183.86 140.29 184.04 141.01 184.08C141.73 184.12 142.15 184.14 142.27 184.14L141.07 189C140.71 189.12 140.11 189.24 139.27 189.36C138.43 189.52 137.45 189.6 136.33 189.6ZM115.51 170.16C117.03 170.16 118.39 170.14 119.59 170.1C120.79 170.02 121.87 169.94 122.83 169.86C124.59 169.66 125.81 169.18 126.49 168.42C127.21 167.62 127.57 166.6 127.57 165.36V163.98C127.57 162.7 127.23 161.62 126.55 160.74C125.87 159.86 124.65 159.42 122.89 159.42H106.51V169.86C108.27 169.98 109.89 170.06 111.37 170.1C112.85 170.14 114.23 170.16 115.51 170.16ZM158.057 189C155.217 189 152.997 188.6 151.397 187.8C149.797 187 148.677 185.8 148.037 184.2C147.397 182.6 147.077 180.62 147.077 178.26V164.88C147.077 161.04 147.937 158.22 149.657 156.42C151.377 154.58 154.177 153.66 158.057 153.66H176.117C178.877 153.66 180.977 153.82 182.417 154.14C183.897 154.42 184.637 154.72 184.637 155.04L183.437 160.02C182.757 159.9 180.737 159.78 177.377 159.66C174.057 159.5 169.217 159.42 162.857 159.42H159.797C156.597 159.42 154.997 160.84 154.997 163.68V178.98C154.997 180.34 155.337 181.4 156.017 182.16C156.737 182.88 157.997 183.24 159.797 183.24H162.257C166.097 183.24 169.337 183.22 171.977 183.18C174.617 183.1 176.797 183.04 178.517 183V174.84L174.917 174.9L167.057 175.5V169.62H186.377V186.48L186.977 187.74C186.977 188.06 186.137 188.36 184.457 188.64C182.777 188.88 179.937 189 175.937 189H158.057ZM205.753 189C202.953 189 200.753 188.6 199.153 187.8C197.553 187 196.413 185.8 195.733 184.2C195.093 182.6 194.773 180.62 194.773 178.26V164.4C194.773 162.08 195.093 160.14 195.733 158.58C196.373 156.98 197.493 155.78 199.093 154.98C200.693 154.14 202.913 153.72 205.753 153.72H223.273C226.073 153.72 228.253 154.14 229.813 154.98C231.413 155.78 232.533 156.98 233.173 158.58C233.853 160.14 234.193 162.08 234.193 164.4V178.26C234.193 181.78 233.413 184.46 231.853 186.3C230.293 188.1 227.433 189 223.273 189H205.753ZM207.493 183.24H221.593C223.073 183.24 224.213 182.86 225.013 182.1C225.853 181.34 226.273 180.3 226.273 178.98V163.68C226.273 162.52 225.853 161.54 225.013 160.74C224.173 159.9 223.033 159.48 221.593 159.48H207.493C206.053 159.48 204.893 159.86 204.013 160.62C203.133 161.38 202.693 162.4 202.693 163.68V178.98C202.693 180.34 203.113 181.4 203.953 182.16C204.833 182.88 206.013 183.24 207.493 183.24Z" fill="#0087DF"/>
    <path d="M9.48338 187.8L9.03617 188.694L9.48338 187.8ZM6.12338 184.2L7.05186 183.829L6.12338 184.2ZM7.74338 156.42L8.46641 157.111L8.47391 157.103L7.74338 156.42ZM40.5034 154.14L40.2864 155.116L40.3019 155.12L40.3175 155.123L40.5034 154.14ZM42.7234 155.04L43.6956 155.274L43.7234 155.159V155.04H42.7234ZM41.5234 160.02L41.3496 161.005L42.2753 161.168L42.4956 160.254L41.5234 160.02ZM35.4634 159.66L35.4152 160.659L35.4277 160.659L35.4634 159.66ZM14.1034 182.16L13.3581 182.827L13.3766 182.847L13.3963 182.867L14.1034 182.16ZM35.7634 183.06L35.7963 184.06L35.8068 184.059L35.7634 183.06ZM42.6034 182.58L43.4528 182.052L43.0938 181.474L42.4245 181.596L42.6034 182.58ZM45.0634 186.54H46.0634V186.255L45.9128 186.012L45.0634 186.54ZM44.0434 187.44L43.5364 186.578L43.5248 186.585L43.5134 186.592L44.0434 187.44ZM40.4434 188.52L40.6223 189.504L40.4434 188.52ZM16.1434 188C13.377 188 11.3336 187.607 9.93059 186.906L9.03617 188.694C10.8332 189.593 13.2298 190 16.1434 190V188ZM9.93059 186.906C8.54051 186.211 7.59717 185.192 7.05186 183.829L5.1949 184.571C5.92959 186.408 7.22625 187.789 9.03617 188.694L9.93059 186.906ZM7.05186 183.829C6.47306 182.382 6.16338 180.537 6.16338 178.26H4.16338C4.16338 180.703 4.4937 182.818 5.1949 184.571L7.05186 183.829ZM6.16338 178.26V164.88H4.16338V178.26H6.16338ZM6.16338 164.88C6.16338 161.162 6.99974 158.646 8.46637 157.111L7.02039 155.729C5.04702 157.794 4.16338 160.918 4.16338 164.88H6.16338ZM8.47391 157.103C9.92322 155.552 12.3924 154.66 16.1434 154.66V152.66C12.1343 152.66 9.00354 153.608 7.01285 155.737L8.47391 157.103ZM16.1434 154.66H34.2034V152.66H16.1434V154.66ZM34.2034 154.66C36.9418 154.66 38.9546 154.82 40.2864 155.116L40.7203 153.164C39.1721 152.82 36.9849 152.66 34.2034 152.66V154.66ZM40.3175 155.123C41.0389 155.259 41.516 155.39 41.7927 155.502C41.9355 155.56 41.965 155.589 41.9424 155.57C41.9251 155.556 41.7234 155.38 41.7234 155.04H43.7234C43.7234 154.54 43.4291 154.207 43.2268 154.037C43.0192 153.863 42.7713 153.74 42.5441 153.648C42.0807 153.46 41.4479 153.301 40.6893 153.157L40.3175 155.123ZM41.7512 154.806L40.5512 159.786L42.4956 160.254L43.6956 155.274L41.7512 154.806ZM41.6972 159.035C40.9311 158.9 38.824 158.779 35.4991 158.661L35.4277 160.659C38.8228 160.781 40.7557 160.9 41.3496 161.005L41.6972 159.035ZM35.5115 158.661C32.167 158.5 27.3078 158.42 20.9434 158.42V160.42C27.299 160.42 32.1198 160.5 35.4152 160.659L35.5115 158.661ZM20.9434 158.42H17.8834V160.42H20.9434V158.42ZM17.8834 158.42C16.1567 158.42 14.6749 158.801 13.6196 159.737C12.5416 160.694 12.0834 162.073 12.0834 163.68H14.0834C14.0834 162.447 14.4252 161.696 14.9472 161.233C15.4919 160.749 16.4101 160.42 17.8834 160.42V158.42ZM12.0834 163.68V178.98H14.0834V163.68H12.0834ZM12.0834 178.98C12.0834 180.503 12.4659 181.83 13.3581 182.827L14.8486 181.493C14.3809 180.97 14.0834 180.177 14.0834 178.98H12.0834ZM13.3963 182.867C14.4042 183.875 16.0057 184.24 17.8834 184.24V182.24C16.1611 182.24 15.2426 181.885 14.8105 181.453L13.3963 182.867ZM17.8834 184.24H20.3434V182.24H17.8834V184.24ZM20.3434 184.24C26.987 184.24 32.1399 184.18 35.7963 184.059L35.7304 182.061C32.1069 182.18 26.9797 182.24 20.3434 182.24V184.24ZM35.8068 184.059C39.4598 183.9 41.8195 183.739 42.7823 183.564L42.4245 181.596C41.6273 181.741 39.4269 181.9 35.7199 182.061L35.8068 184.059ZM41.7539 183.108L44.2139 187.068L45.9128 186.012L43.4528 182.052L41.7539 183.108ZM44.0634 186.54C44.0634 186.311 44.1565 186.17 44.1727 186.146C44.1944 186.115 44.1969 186.121 44.1468 186.165C44.0471 186.253 43.8553 186.39 43.5364 186.578L44.5504 188.302C44.9115 188.09 45.2297 187.877 45.47 187.665C45.5898 187.559 45.7199 187.428 45.8266 187.271C45.9277 187.122 46.0634 186.869 46.0634 186.54H44.0634ZM43.5134 186.592C43.052 186.88 42.0247 187.216 40.2645 187.536L40.6223 189.504C42.382 189.184 43.7547 188.8 44.5734 188.288L43.5134 186.592ZM40.2645 187.536C38.5938 187.84 36.125 188 32.8234 188V190C36.1618 190 38.773 189.84 40.6223 189.504L40.2645 187.536ZM32.8234 188H16.1434V190H32.8234V188ZM46.2563 189L45.3613 188.554L44.6408 190H46.2563V189ZM63.8363 153.72V152.72H63.2174L62.9413 153.274L63.8363 153.72ZM75.6563 153.72L76.552 153.275L76.2763 152.72H75.6563V153.72ZM93.1764 189V190H94.7895L94.072 188.555L93.1764 189ZM83.9363 189L83.0294 189.421L83.2983 190H83.9363V189ZM80.3963 181.38L81.3033 180.959L81.0344 180.38H80.3963V181.38ZM58.9163 181.38V180.38H58.3048L58.0262 180.924L58.9163 181.38ZM55.0163 189V190H55.6279L55.9065 189.456L55.0163 189ZM61.0763 175.5L60.1839 175.049L59.4504 176.5H61.0763V175.5ZM78.1763 175.5V176.5H79.797L79.0701 175.051L78.1763 175.5ZM69.9563 159.12L70.8501 158.671L70.5734 158.12H69.9563V159.12ZM69.3563 159.12V158.12H68.7413L68.4639 158.669L69.3563 159.12ZM47.1514 189.446L64.7314 154.166L62.9413 153.274L45.3613 188.554L47.1514 189.446ZM63.8363 154.72H75.6563V152.72H63.8363V154.72ZM74.7607 154.165L92.2807 189.445L94.072 188.555L76.552 153.275L74.7607 154.165ZM93.1764 188H83.9363V190H93.1764V188ZM84.8433 188.579L81.3033 180.959L79.4894 181.801L83.0294 189.421L84.8433 188.579ZM80.3963 180.38H58.9163V182.38H80.3963V180.38ZM58.0262 180.924L54.1262 188.544L55.9065 189.456L59.8065 181.836L58.0262 180.924ZM55.0163 188H46.2563V190H55.0163V188ZM61.0763 176.5H78.1763V174.5H61.0763V176.5ZM79.0701 175.051L70.8501 158.671L69.0626 159.569L77.2826 175.949L79.0701 175.051ZM69.9563 158.12H69.3563V160.12H69.9563V158.12ZM68.4639 158.669L60.1839 175.049L61.9688 175.951L70.2488 159.571L68.4639 158.669ZM131.59 188.88L131.266 189.826L131.281 189.831L131.296 189.836L131.59 188.88ZM126.37 185.16L125.663 185.867L126.37 185.16ZM122.05 180.84L121.335 181.539L121.343 181.547L122.05 180.84ZM116.23 176.88L115.855 177.807L115.862 177.81L116.23 176.88ZM106.51 175.62V174.62H105.51V175.62H106.51ZM106.51 189V190H107.51V189H106.51ZM98.5899 189H97.5899V190H98.5899V189ZM98.5899 158.52H99.5899V158.459L99.5824 158.397L98.5899 158.52ZM97.9899 153.66V152.66H96.8589L96.9975 153.783L97.9899 153.66ZM130.57 154.68L130.143 155.584L130.152 155.589L130.57 154.68ZM133.81 157.38L132.955 157.899L132.966 157.917L132.978 157.935L133.81 157.38ZM135.13 168.48L136.106 168.697L135.13 168.48ZM133.75 171.66L134.587 172.207L133.75 171.66ZM130.81 174.3L130.32 173.428L130.308 173.435L130.81 174.3ZM125.89 175.56L125.831 174.562L122.311 174.769L125.416 176.44L125.89 175.56ZM127.87 176.88L127.27 177.68L127.283 177.69L127.296 177.699L127.87 176.88ZM130.33 178.74L129.701 179.517L129.71 179.524L129.718 179.531L130.33 178.74ZM132.73 180.6L132.116 181.389L132.73 180.6ZM134.41 181.8L133.895 182.658L133.906 182.664L134.41 181.8ZM142.27 184.14L143.241 184.38L143.547 183.14H142.27V184.14ZM141.07 189L141.386 189.949L141.909 189.774L142.041 189.24L141.07 189ZM139.27 189.36L139.129 188.37L139.106 188.373L139.083 188.378L139.27 189.36ZM119.59 170.1L119.623 171.099L119.64 171.099L119.656 171.098L119.59 170.1ZM122.83 169.86L122.913 170.857L122.928 170.855L122.943 170.854L122.83 169.86ZM126.49 168.42L125.747 167.751L125.745 167.753L126.49 168.42ZM126.55 160.74L127.341 160.129L126.55 160.74ZM106.51 159.42V158.42H105.51V159.42H106.51ZM106.51 169.86H105.51V170.794L106.442 170.858L106.51 169.86ZM111.37 170.1L111.397 169.1L111.37 170.1ZM136.33 188.6C134.832 188.6 133.351 188.376 131.884 187.924L131.296 189.836C132.949 190.344 134.628 190.6 136.33 190.6V188.6ZM131.914 187.934C130.607 187.487 128.997 186.373 127.077 184.453L125.663 185.867C127.663 187.867 129.533 189.233 131.266 189.826L131.914 187.934ZM127.077 184.453L122.757 180.133L121.343 181.547L125.663 185.867L127.077 184.453ZM122.765 180.141C120.917 178.251 118.862 176.847 116.598 175.95L115.862 177.81C117.838 178.593 119.663 179.829 121.335 181.539L122.765 180.141ZM116.604 175.953C114.367 175.049 111.61 174.62 108.37 174.62V176.62C111.45 176.62 113.932 177.031 115.855 177.807L116.604 175.953ZM108.37 174.62H106.51V176.62H108.37V174.62ZM105.51 175.62V189H107.51V175.62H105.51ZM106.51 188H98.5899V190H106.51V188ZM99.5899 189V158.52H97.5899V189H99.5899ZM99.5824 158.397L98.9824 153.537L96.9975 153.783L97.5975 158.643L99.5824 158.397ZM97.9899 154.66H124.57V152.66H97.9899V154.66ZM124.57 154.66C127.062 154.66 128.893 154.994 130.143 155.584L130.997 153.776C129.366 153.006 127.198 152.66 124.57 152.66V154.66ZM130.152 155.589C131.495 156.206 132.401 156.987 132.955 157.899L134.665 156.861C133.858 155.533 132.605 154.514 130.987 153.771L130.152 155.589ZM132.978 157.935C133.621 158.9 134.026 159.925 134.203 161.019L136.177 160.701C135.954 159.315 135.439 158.02 134.642 156.825L132.978 157.935ZM134.203 161.019C134.395 162.213 134.49 163.339 134.49 164.4H136.49C136.49 163.221 136.385 161.987 136.177 160.701L134.203 161.019ZM134.49 164.4V165.54H136.49V164.4H134.49ZM134.49 165.54C134.49 166.331 134.382 167.237 134.154 168.263L136.106 168.697C136.358 167.563 136.49 166.509 136.49 165.54H134.49ZM134.154 168.263C133.943 169.212 133.535 170.161 132.913 171.113L134.587 172.207C135.325 171.079 135.837 169.908 136.106 168.697L134.154 168.263ZM132.913 171.113C132.335 171.996 131.485 172.773 130.32 173.428L131.3 175.172C132.695 174.387 133.804 173.404 134.587 172.207L132.913 171.113ZM130.308 173.435C129.248 174.05 127.777 174.447 125.831 174.562L125.949 176.558C128.083 176.433 129.892 175.99 131.312 175.165L130.308 173.435ZM125.416 176.44C125.872 176.686 126.487 177.092 127.27 177.68L128.47 176.08C127.653 175.468 126.948 174.994 126.364 174.68L125.416 176.44ZM127.296 177.699C128.076 178.245 128.877 178.85 129.701 179.517L130.959 177.963C130.103 177.27 129.264 176.635 128.443 176.061L127.296 177.699ZM129.718 179.531C130.598 180.211 131.397 180.83 132.116 181.389L133.344 179.811C132.623 179.25 131.822 178.629 130.941 177.949L129.718 179.531ZM132.116 181.389C132.844 181.955 133.442 182.386 133.895 182.657L134.924 180.943C134.578 180.734 134.056 180.365 133.344 179.811L132.116 181.389ZM133.906 182.664C135.39 183.529 136.749 184.151 137.975 184.502L138.525 182.578C137.511 182.289 136.31 181.751 134.914 180.936L133.906 182.664ZM137.975 184.502C139.129 184.831 140.129 185.033 140.954 185.078L141.065 183.082C140.451 183.047 139.611 182.889 138.525 182.578L137.975 184.502ZM140.954 185.078C141.657 185.117 142.114 185.14 142.27 185.14V183.14C142.185 183.14 141.803 183.123 141.065 183.082L140.954 185.078ZM141.299 183.9L140.099 188.76L142.041 189.24L143.241 184.38L141.299 183.9ZM140.754 188.051C140.486 188.141 139.963 188.251 139.129 188.37L139.411 190.35C140.256 190.229 140.934 190.099 141.386 189.949L140.754 188.051ZM139.083 188.378C138.32 188.523 137.405 188.6 136.33 188.6V190.6C137.495 190.6 138.54 190.517 139.457 190.342L139.083 188.378ZM115.51 171.16C117.038 171.16 118.41 171.14 119.623 171.099L119.557 169.101C118.37 169.14 117.022 169.16 115.51 169.16V171.16ZM119.656 171.098C120.861 171.018 121.946 170.937 122.913 170.857L122.747 168.863C121.794 168.943 120.719 169.022 119.523 169.102L119.656 171.098ZM122.943 170.854C124.783 170.645 126.308 170.123 127.235 169.087L125.745 167.753C125.312 168.237 124.397 168.675 122.717 168.866L122.943 170.854ZM127.233 169.089C128.143 168.078 128.57 166.807 128.57 165.36H126.57C126.57 166.393 126.276 167.162 125.747 167.751L127.233 169.089ZM128.57 165.36V163.98H126.57V165.36H128.57ZM128.57 163.98C128.57 162.514 128.176 161.209 127.341 160.129L125.759 161.351C126.283 162.031 126.57 162.886 126.57 163.98H128.57ZM127.341 160.129C126.383 158.889 124.778 158.42 122.89 158.42V160.42C124.522 160.42 125.357 160.831 125.759 161.351L127.341 160.129ZM122.89 158.42H106.51V160.42H122.89V158.42ZM105.51 159.42V169.86H107.51V159.42H105.51ZM106.442 170.858C108.213 170.978 109.847 171.059 111.343 171.1L111.397 169.1C109.933 169.061 108.327 168.982 106.578 168.862L106.442 170.858ZM111.343 171.1C112.831 171.14 114.22 171.16 115.51 171.16V169.16C114.24 169.16 112.869 169.14 111.397 169.1L111.343 171.1ZM151.397 187.8L150.95 188.694L151.397 187.8ZM148.037 184.2L148.966 183.829L148.037 184.2ZM149.657 156.42L150.38 157.111L150.388 157.103L149.657 156.42ZM182.417 154.14L182.201 155.116L182.216 155.12L182.232 155.123L182.417 154.14ZM184.637 155.04L185.61 155.274L185.637 155.159V155.04H184.637ZM183.437 160.02L183.264 161.005L184.189 161.168L184.41 160.254L183.437 160.02ZM177.377 159.66L177.329 160.659L177.342 160.659L177.377 159.66ZM156.017 182.16L155.272 182.827L155.291 182.847L155.31 182.867L156.017 182.16ZM171.977 183.18L171.993 184.18L172 184.18L172.008 184.18L171.977 183.18ZM178.517 183L178.541 184L179.517 183.977V183H178.517ZM178.517 174.84H179.517V173.823L178.501 173.84L178.517 174.84ZM174.917 174.9L174.901 173.9L174.871 173.901L174.841 173.903L174.917 174.9ZM167.057 175.5H166.057V176.579L167.134 176.497L167.057 175.5ZM167.057 169.62V168.62H166.057V169.62H167.057ZM186.377 169.62H187.377V168.62H186.377V169.62ZM186.377 186.48H185.377V186.706L185.475 186.91L186.377 186.48ZM186.977 187.74H187.977V187.514L187.88 187.31L186.977 187.74ZM184.457 188.64L184.599 189.63L184.61 189.628L184.622 189.626L184.457 188.64ZM158.057 188C155.291 188 153.248 187.607 151.845 186.906L150.95 188.694C152.747 189.593 155.144 190 158.057 190V188ZM151.845 186.906C150.455 186.211 149.511 185.192 148.966 183.829L147.109 184.571C147.844 186.408 149.14 187.789 150.95 188.694L151.845 186.906ZM148.966 183.829C148.387 182.382 148.077 180.537 148.077 178.26H146.077C146.077 180.703 146.408 182.818 147.109 184.571L148.966 183.829ZM148.077 178.26V164.88H146.077V178.26H148.077ZM148.077 164.88C148.077 161.162 148.914 158.646 150.38 157.111L148.934 155.729C146.961 157.794 146.077 160.918 146.077 164.88H148.077ZM150.388 157.103C151.837 155.552 154.307 154.66 158.057 154.66V152.66C154.048 152.66 150.918 153.608 148.927 155.737L150.388 157.103ZM158.057 154.66H176.117V152.66H158.057V154.66ZM176.117 154.66C178.856 154.66 180.869 154.82 182.201 155.116L182.634 153.164C181.086 152.82 178.899 152.66 176.117 152.66V154.66ZM182.232 155.123C182.953 155.259 183.43 155.39 183.707 155.502C183.85 155.56 183.879 155.589 183.856 155.57C183.839 155.556 183.637 155.38 183.637 155.04H185.637C185.637 154.54 185.343 154.207 185.141 154.037C184.933 153.863 184.685 153.74 184.458 153.648C183.995 153.46 183.362 153.301 182.603 153.157L182.232 155.123ZM183.665 154.806L182.465 159.786L184.41 160.254L185.61 155.274L183.665 154.806ZM183.611 159.035C182.845 158.9 180.738 158.779 177.413 158.661L177.342 160.659C180.737 160.781 182.67 160.9 183.264 161.005L183.611 159.035ZM177.426 158.661C174.081 158.5 169.222 158.42 162.857 158.42V160.42C169.213 160.42 174.034 160.5 177.329 160.659L177.426 158.661ZM162.857 158.42H159.797V160.42H162.857V158.42ZM159.797 158.42C158.071 158.42 156.589 158.801 155.534 159.737C154.456 160.694 153.997 162.073 153.997 163.68H155.997C155.997 162.447 156.339 161.696 156.861 161.233C157.406 160.749 158.324 160.42 159.797 160.42V158.42ZM153.997 163.68V178.98H155.997V163.68H153.997ZM153.997 178.98C153.997 180.503 154.38 181.83 155.272 182.827L156.763 181.493C156.295 180.97 155.997 180.177 155.997 178.98H153.997ZM155.31 182.867C156.318 183.875 157.92 184.24 159.797 184.24V182.24C158.075 182.24 157.157 181.885 156.725 181.453L155.31 182.867ZM159.797 184.24H162.257V182.24H159.797V184.24ZM162.257 184.24C166.1 184.24 169.346 184.22 171.993 184.18L171.962 182.18C169.329 182.22 166.094 182.24 162.257 182.24V184.24ZM172.008 184.18C174.646 184.1 176.824 184.04 178.541 184L178.494 182C176.771 182.04 174.588 182.1 171.947 182.18L172.008 184.18ZM179.517 183V174.84H177.517V183H179.517ZM178.501 173.84L174.901 173.9L174.934 175.9L178.534 175.84L178.501 173.84ZM174.841 173.903L166.981 174.503L167.134 176.497L174.994 175.897L174.841 173.903ZM168.057 175.5V169.62H166.057V175.5H168.057ZM167.057 170.62H186.377V168.62H167.057V170.62ZM185.377 169.62V186.48H187.377V169.62H185.377ZM185.475 186.91L186.075 188.17L187.88 187.31L187.28 186.05L185.475 186.91ZM185.977 187.74C185.977 187.549 186.043 187.399 186.106 187.304C186.163 187.218 186.218 187.178 186.226 187.172C186.236 187.164 186.184 187.201 186.011 187.263C185.677 187.383 185.117 187.516 184.293 187.654L184.622 189.626C185.478 189.484 186.178 189.327 186.684 189.147C186.931 189.059 187.194 188.943 187.414 188.781C187.612 188.634 187.977 188.296 187.977 187.74H185.977ZM184.316 187.65C182.713 187.879 179.936 188 175.937 188V190C179.939 190 182.842 189.881 184.599 189.63L184.316 187.65ZM175.937 188H158.057V190H175.937V188ZM199.153 187.8L198.706 188.694L199.153 187.8ZM195.733 184.2L194.804 184.571L194.808 184.581L194.812 184.591L195.733 184.2ZM195.733 158.58L196.658 158.96L196.661 158.951L195.733 158.58ZM199.093 154.98L199.54 155.874L199.549 155.87L199.558 155.865L199.093 154.98ZM229.813 154.98L229.339 155.86L229.352 155.868L229.366 155.874L229.813 154.98ZM233.173 158.58L232.244 158.951L232.25 158.966L232.256 158.98L233.173 158.58ZM231.853 186.3L232.608 186.955L232.616 186.947L231.853 186.3ZM225.013 182.1L224.342 181.358L224.333 181.367L224.324 181.375L225.013 182.1ZM225.013 160.74L224.306 161.447L224.314 161.456L224.323 161.464L225.013 160.74ZM203.953 182.16L203.282 182.902L203.3 182.918L203.32 182.934L203.953 182.16ZM205.753 188C203.029 188 201.004 187.608 199.6 186.906L198.706 188.694C200.501 189.592 202.877 190 205.753 190V188ZM199.6 186.906C198.206 186.208 197.237 185.183 196.653 183.809L194.812 184.591C195.588 186.417 196.9 187.792 198.706 188.694L199.6 186.906ZM196.661 183.829C196.082 182.382 195.773 180.537 195.773 178.26H193.773C193.773 180.703 194.103 182.818 194.804 184.571L196.661 183.829ZM195.773 178.26V164.4H193.773V178.26H195.773ZM195.773 164.4C195.773 162.164 196.082 160.363 196.658 158.96L194.808 158.2C194.103 159.917 193.773 161.996 193.773 164.4H195.773ZM196.661 158.951C197.207 157.588 198.15 156.569 199.54 155.874L198.646 154.086C196.836 154.991 195.539 156.372 194.804 158.209L196.661 158.951ZM199.558 155.865C200.955 155.132 202.991 154.72 205.753 154.72V152.72C202.834 152.72 200.43 153.148 198.628 154.095L199.558 155.865ZM205.753 154.72H223.273V152.72H205.753V154.72ZM223.273 154.72C225.994 154.72 227.985 155.132 229.339 155.86L230.287 154.1C228.52 153.148 226.152 152.72 223.273 152.72V154.72ZM229.366 155.874C230.756 156.569 231.699 157.588 232.244 158.951L234.101 158.209C233.367 156.372 232.07 154.991 230.26 154.086L229.366 155.874ZM232.256 158.98C232.865 160.377 233.193 162.171 233.193 164.4H235.193C235.193 161.989 234.84 159.903 234.089 158.18L232.256 158.98ZM233.193 164.4V178.26H235.193V164.4H233.193ZM233.193 178.26C233.193 181.649 232.44 184.061 231.09 185.653L232.616 186.947C234.386 184.859 235.193 181.911 235.193 178.26H233.193ZM231.097 185.645C229.829 187.108 227.348 188 223.273 188V190C227.518 190 230.756 189.092 232.608 186.955L231.097 185.645ZM223.273 188H205.753V190H223.273V188ZM207.493 184.24H221.593V182.24H207.493V184.24ZM221.593 184.24C223.24 184.24 224.66 183.815 225.702 182.825L224.324 181.375C223.766 181.905 222.906 182.24 221.593 182.24V184.24ZM225.684 182.842C226.768 181.86 227.273 180.531 227.273 178.98H225.273C225.273 180.069 224.937 180.82 224.342 181.358L225.684 182.842ZM227.273 178.98V163.68H225.273V178.98H227.273ZM227.273 163.68C227.273 162.246 226.741 161.005 225.702 160.016L224.323 161.464C224.965 162.075 225.273 162.794 225.273 163.68H227.273ZM225.72 160.033C224.654 158.967 223.238 158.48 221.593 158.48V160.48C222.828 160.48 223.692 160.833 224.306 161.447L225.72 160.033ZM221.593 158.48H207.493V160.48H221.593V158.48ZM207.493 158.48C205.872 158.48 204.461 158.911 203.359 159.863L204.666 161.377C205.324 160.809 206.233 160.48 207.493 160.48V158.48ZM203.359 159.863C202.235 160.834 201.693 162.142 201.693 163.68H203.693C203.693 162.658 204.03 161.926 204.666 161.377L203.359 159.863ZM201.693 163.68V178.98H203.693V163.68H201.693ZM201.693 178.98C201.693 180.561 202.191 181.914 203.282 182.902L204.624 181.418C204.035 180.886 203.693 180.119 203.693 178.98H201.693ZM203.32 182.934C204.426 183.839 205.852 184.24 207.493 184.24V182.24C206.173 182.24 205.239 181.921 204.586 181.386L203.32 182.934Z" fill="white" mask="url(#path-3-outside-2_6_16)"/>
</svg>
